<?xml version="1.0" encoding="iso-8859-1"?>
<!-- Uploaded to: SVG Repo, www.svgrepo.com, Generator: SVG Repo Mixer Tools -->
<svg height="800px" width="800px" version="1.1" id="Layer_1" xmlns="http://www.w3.org/2000/svg" xmlns:xlink="http://www.w3.org/1999/xlink" 
	 viewBox="0 0 511.999 511.999" xml:space="preserve">
<g>
	<path style="fill:#ABB8B9;" d="M255.166,222.833c58.913,0,106.667,47.756,106.667,106.667s-47.755,106.667-106.667,106.667
		c-58.909,0-106.665-47.756-106.665-106.667S196.256,222.833,255.166,222.833L255.166,222.833z M287.166,121.999
		c0,17.674-14.328,32-32,32c-17.672,0-31.999-14.327-31.999-32s14.328-32,31.999-32C272.839,89.999,287.166,104.325,287.166,121.999
		L287.166,121.999z M401.834,10.668h-291.67c-10.724,0-19.498,8.776-19.498,19.499v430.335c0,10.726,8.775,19.497,19.498,19.497
		h38.338h213.327h40.004c10.726,0,19.499-8.772,19.499-19.497V30.167C421.333,19.444,412.56,10.668,401.834,10.668z"/>
	<g>
		<path style="fill:#ED8C18;" d="M223.166,121.999h64c0-17.674-14.328-32-32-32C237.493,89.999,223.166,104.325,223.166,121.999z"/>
		<path style="fill:#ED8C18;" d="M287.166,121.999h-64c0,17.674,14.328,32,31.999,32C272.839,154,287.166,139.674,287.166,121.999z"
			/>
	</g>
	<path style="fill:#657694;" d="M361.833,329.5c0-58.911-47.755-106.667-106.667-106.667c-58.909,0-106.665,47.756-106.665,106.667
		s47.756,106.667,106.665,106.667C314.077,436.167,361.833,388.41,361.833,329.5L361.833,329.5z M255.166,308.167
		c11.783,0,21.334,9.549,21.334,21.333c0,11.784-9.551,21.333-21.334,21.333c-11.782,0-21.333-9.549-21.333-21.333
		S243.384,308.167,255.166,308.167z"/>
	<circle style="fill:#ED8C18;" cx="255.167" cy="329.499" r="21.334"/>
</g>
<g>
	<path style="fill:#000003;" d="M401.834,0h-291.67C93.531,0,79.999,13.533,79.999,30.167v430.335
		c0,16.633,13.534,30.165,30.166,30.165h27.671v10.665c0,5.891,4.776,10.668,10.668,10.668c5.893,0,10.668-4.777,10.668-10.668
		v-10.665h191.992v10.665c0,5.891,4.777,10.668,10.668,10.668s10.668-4.777,10.668-10.668v-10.665h29.337
		c16.635,0,30.167-13.532,30.167-30.165V30.167C432,13.533,418.469,0,401.834,0z M410.665,460.503c0,4.869-3.962,8.83-8.832,8.83
		h-291.67c-4.869,0-8.831-3.961-8.831-8.83V30.167c0-4.871,3.962-8.832,8.831-8.832h291.67c4.87,0,8.832,3.961,8.832,8.832V460.503z
		"/>
	<path style="fill:#000003;" d="M255.168,212.166c-64.696,0-117.332,52.636-117.332,117.334c0,64.695,52.636,117.33,117.332,117.33
		c64.698,0,117.334-52.636,117.334-117.33C372.502,264.8,319.865,212.166,255.168,212.166z M255.168,425.495
		c-52.933,0-95.997-43.064-95.997-95.995c0-52.936,43.064-95.999,95.997-95.999s95.999,43.064,95.999,95.999
		C351.167,382.431,308.101,425.495,255.168,425.495z"/>
	<path style="fill:#000003;" d="M231.201,269.203c-3.048-5.043-9.605-6.657-14.648-3.615
		c-22.241,13.437-36.056,37.926-36.056,63.911c0,5.891,4.777,10.668,10.668,10.668c5.892,0,10.668-4.777,10.668-10.668
		c0-18.561,9.869-36.053,25.754-45.65C232.629,280.805,234.247,274.247,231.201,269.203z"/>
	<path style="fill:#000003;" d="M308.499,329.5c0,18.559-9.867,36.051-25.754,45.647c-5.044,3.048-6.661,9.605-3.614,14.647
		c2.004,3.319,5.528,5.155,9.14,5.155c1.879,0,3.781-0.498,5.506-1.539c22.241-13.437,36.056-37.924,36.056-63.909
		c0-5.892-4.776-10.668-10.668-10.668S308.499,323.608,308.499,329.5z"/>
	<path style="fill:#000003;" d="M287.169,329.5c0-17.647-14.356-32.005-32.002-32.005c-17.647,0-32.003,14.357-32.003,32.005
		c0,17.645,14.355,32,32.003,32C272.813,361.5,287.169,347.145,287.169,329.5z M244.5,329.5c0-5.884,4.785-10.67,10.668-10.67
		s10.666,4.785,10.666,10.67c0,5.88-4.784,10.665-10.666,10.665S244.5,335.38,244.5,329.5z"/>
	<path style="fill:#000003;" d="M183.5,132.667h30.35c4.749,18.38,21.472,32,41.316,32s36.568-13.62,41.317-32h30.348
		c5.892,0,10.668-4.778,10.668-10.668c0-5.893-4.776-10.668-10.668-10.668h-30.348c-4.749-18.383-21.474-32-41.317-32
		c-19.846,0-36.567,13.618-41.316,32H183.5c-5.891,0-10.668,4.775-10.668,10.668C172.833,127.89,177.61,132.667,183.5,132.667z
		 M255.168,143.332c-7.876,0-14.75-4.3-18.445-10.665h36.892C269.918,139.032,263.042,143.332,255.168,143.332z M255.168,100.666
		c7.875,0,14.75,4.3,18.446,10.665h-36.892C240.417,104.966,247.292,100.666,255.168,100.666z"/>
	<path style="fill:#000003;" d="M254.795,276.169c0.063,0,0.125,0,0.188-0.002h0.183c5.892,0,10.668-4.778,10.668-10.668
		c0-5.892-4.776-10.668-10.668-10.668c-0.247,0-0.5,0-0.75,0.009c-5.868,0.158-10.46,5.03-10.329,10.899
		C244.216,271.545,249.009,276.169,254.795,276.169z"/>
	<path style="fill:#000003;" d="M255.627,382.829h-0.462c-5.892,0-10.668,4.776-10.668,10.668c0,5.89,4.776,10.668,10.668,10.668
		h0.462c5.892,0,10.668-4.778,10.668-10.668C266.294,387.605,261.518,382.829,255.627,382.829z"/>
</g>
</svg>